<svg width="32" height="32" viewBox="0 0 32 32" fill="none" xmlns="http://www.w3.org/2000/svg">
<mask id="mask0_420_1356" style="mask-type:alpha" maskUnits="userSpaceOnUse" x="0" y="0" width="32" height="32">
<rect width="32" height="32" fill="#D9D9D9"/>
</mask>
<g mask="url(#mask0_420_1356)">
<path d="M10.8001 19.6666C11.1112 20.7333 11.5945 21.5944 12.2501 22.25C12.9056 22.9055 13.7556 23.3555 14.8001 23.6V24.1666C14.8001 24.4777 14.9167 24.75 15.1501 24.9833C15.3834 25.2166 15.6556 25.3333 15.9667 25.3333C16.2779 25.3333 16.5501 25.2166 16.7834 24.9833C17.0167 24.75 17.1334 24.4777 17.1334 24.1666V23.6666C18.2445 23.4666 19.2001 23.0333 20.0001 22.3666C20.8001 21.7 21.2001 20.7111 21.2001 19.4C21.2001 18.4666 20.9334 17.6111 20.4001 16.8333C19.8667 16.0555 18.8001 15.3777 17.2001 14.8C15.8667 14.3555 14.9445 13.9666 14.4334 13.6333C13.9223 13.3 13.6667 12.8444 13.6667 12.2666C13.6667 11.6888 13.8723 11.2333 14.2834 10.9C14.6945 10.5666 15.289 10.4 16.0667 10.4C16.7779 10.4 17.3334 10.5722 17.7334 10.9166C18.1334 11.2611 18.4223 11.6888 18.6001 12.2L20.7334 11.3333C20.489 10.5555 20.039 9.87774 19.3834 9.29996C18.7279 8.72218 18.0001 8.39996 17.2001 8.33329V7.83329C17.2001 7.52218 17.0834 7.24996 16.8501 7.01663C16.6167 6.78329 16.3445 6.66663 16.0334 6.66663C15.7223 6.66663 15.4501 6.78329 15.2167 7.01663C14.9834 7.24996 14.8667 7.52218 14.8667 7.83329V8.33329C13.7556 8.57774 12.889 9.06663 12.2667 9.79996C11.6445 10.5333 11.3334 11.3555 11.3334 12.2666C11.3334 13.3111 11.639 14.1555 12.2501 14.8C12.8612 15.4444 13.8223 16 15.1334 16.4666C16.5334 16.9777 17.5056 17.4333 18.0501 17.8333C18.5945 18.2333 18.8667 18.7555 18.8667 19.4C18.8667 20.1333 18.6056 20.6722 18.0834 21.0166C17.5612 21.3611 16.9334 21.5333 16.2001 21.5333C15.4667 21.5333 14.8167 21.3055 14.2501 20.85C13.6834 20.3944 13.2667 19.7111 13.0001 18.8L10.8001 19.6666ZM16.0001 29.3333C14.1556 29.3333 12.4223 28.9833 10.8001 28.2833C9.17786 27.5833 7.76675 26.6333 6.56675 25.4333C5.36675 24.2333 4.41675 22.8222 3.71675 21.2C3.01675 19.5777 2.66675 17.8444 2.66675 16C2.66675 14.1555 3.01675 12.4222 3.71675 10.8C4.41675 9.17774 5.36675 7.76663 6.56675 6.56663C7.76675 5.36663 9.17786 4.41663 10.8001 3.71663C12.4223 3.01663 14.1556 2.66663 16.0001 2.66663C17.8445 2.66663 19.5779 3.01663 21.2001 3.71663C22.8223 4.41663 24.2334 5.36663 25.4334 6.56663C26.6334 7.76663 27.5834 9.17774 28.2834 10.8C28.9834 12.4222 29.3334 14.1555 29.3334 16C29.3334 17.8444 28.9834 19.5777 28.2834 21.2C27.5834 22.8222 26.6334 24.2333 25.4334 25.4333C24.2334 26.6333 22.8223 27.5833 21.2001 28.2833C19.5779 28.9833 17.8445 29.3333 16.0001 29.3333ZM16.0001 26.6666C18.9779 26.6666 21.5001 25.6333 23.5667 23.5666C25.6334 21.5 26.6667 18.9777 26.6667 16C26.6667 13.0222 25.6334 10.5 23.5667 8.43329C21.5001 6.36663 18.9779 5.33329 16.0001 5.33329C13.0223 5.33329 10.5001 6.36663 8.43341 8.43329C6.36675 10.5 5.33341 13.0222 5.33341 16C5.33341 18.9777 6.36675 21.5 8.43341 23.5666C10.5001 25.6333 13.0223 26.6666 16.0001 26.6666Z" fill="#003049"/>
</g>
</svg>
