<svg width="32" height="32" viewBox="0 0 32 32" fill="none" xmlns="http://www.w3.org/2000/svg">
<mask id="mask0_420_1380" style="mask-type:alpha" maskUnits="userSpaceOnUse" x="0" y="0" width="32" height="32">
<rect width="32" height="32" fill="#D9D9D9"/>
</mask>
<g mask="url(#mask0_420_1380)">
<path d="M21.3333 16.9C21.1777 16.9 21.0277 16.8778 20.8833 16.8334C20.7388 16.7889 20.611 16.7111 20.4999 16.6C18.5888 14.8667 16.9166 13.1945 15.4833 11.5834C14.0499 9.97224 13.3333 8.46669 13.3333 7.06669C13.3333 5.82224 13.7555 4.7778 14.5999 3.93335C15.4444 3.08891 16.4888 2.66669 17.7333 2.66669C18.4444 2.66669 19.111 2.81669 19.7333 3.11669C20.3555 3.41669 20.8888 3.82224 21.3333 4.33335C21.7777 3.82224 22.311 3.41669 22.9333 3.11669C23.5555 2.81669 24.2221 2.66669 24.9333 2.66669C26.1777 2.66669 27.2221 3.08891 28.0666 3.93335C28.911 4.7778 29.3333 5.82224 29.3333 7.06669C29.3333 8.46669 28.6166 9.97224 27.1833 11.5834C25.7499 13.1945 24.0777 14.8667 22.1666 16.6C22.0555 16.7111 21.9277 16.7889 21.7833 16.8334C21.6388 16.8778 21.4888 16.9 21.3333 16.9ZM21.3333 13.7334C22.6444 12.4889 23.861 11.25 24.9833 10.0167C26.1055 8.78335 26.6666 7.80002 26.6666 7.06669C26.6666 6.55558 26.5055 6.13891 26.1833 5.81669C25.861 5.49447 25.4444 5.33335 24.9333 5.33335C24.6221 5.33335 24.3277 5.39447 24.0499 5.51669C23.7721 5.63891 23.5333 5.82224 23.3333 6.06669L21.3333 8.46669L19.3333 6.06669C19.1333 5.82224 18.8944 5.63891 18.6166 5.51669C18.3388 5.39447 18.0444 5.33335 17.7333 5.33335C17.2221 5.33335 16.8055 5.49447 16.4833 5.81669C16.161 6.13891 15.9999 6.55558 15.9999 7.06669C15.9999 7.80002 16.561 8.78335 17.6833 10.0167C18.8055 11.25 20.0221 12.4889 21.3333 13.7334ZM18.5999 27.2L26.5333 24.7334C26.4221 24.5334 26.261 24.3611 26.0499 24.2167C25.8388 24.0722 25.5999 24 25.3333 24H18.5999C17.9999 24 17.5221 23.9778 17.1666 23.9334C16.811 23.8889 16.4444 23.8 16.0666 23.6667L14.1666 23.0334C13.811 22.9222 13.5555 22.7 13.3999 22.3667C13.2444 22.0334 13.2221 21.6889 13.3333 21.3334C13.4444 20.9778 13.661 20.7167 13.9833 20.55C14.3055 20.3834 14.6444 20.3556 14.9999 20.4667L16.3999 20.9334C16.7777 21.0445 17.2055 21.1334 17.6833 21.2C18.161 21.2667 18.811 21.3111 19.6333 21.3334H19.9999C19.9999 21.0889 19.9277 20.8556 19.7833 20.6334C19.6388 20.4111 19.4666 20.2667 19.2666 20.2L11.4666 17.3334H9.33325V24.6667L18.5999 27.2ZM17.8999 29.8L9.33325 27.4C9.15547 27.9778 8.80547 28.4445 8.28325 28.8C7.76103 29.1556 7.22214 29.3334 6.66659 29.3334H3.99992C3.26659 29.3334 2.63881 29.0722 2.11659 28.55C1.59436 28.0278 1.33325 27.4 1.33325 26.6667V17.3334C1.33325 16.6 1.59436 15.9722 2.11659 15.45C2.63881 14.9278 3.26659 14.6667 3.99992 14.6667H11.4666C11.6221 14.6667 11.7777 14.6834 11.9333 14.7167C12.0888 14.75 12.2333 14.7889 12.3666 14.8334L20.1999 17.7334C20.9333 18 21.5277 18.4667 21.9833 19.1334C22.4388 19.8 22.6666 20.5334 22.6666 21.3334H25.3333C26.4444 21.3334 27.3888 21.7 28.1666 22.4334C28.9444 23.1667 29.3333 24.1334 29.3333 25.3334C29.3333 25.8222 29.2055 26.2056 28.9499 26.4834C28.6944 26.7611 28.2999 26.9889 27.7666 27.1667L19.4333 29.7667C19.1888 29.8556 18.9333 29.9 18.6666 29.9C18.3999 29.9 18.1444 29.8667 17.8999 29.8ZM3.99992 26.6667H6.66659V17.3334H3.99992V26.6667Z" fill="#003049"/>
</g>
</svg>
