<svg width="26" height="26" viewBox="0 0 26 26" fill="none" xmlns="http://www.w3.org/2000/svg">
<path d="M14.0667 5.26667C13.6667 5.26667 13.2778 5.32222 12.9 5.43333C12.5222 5.54444 12.1778 5.75556 11.8667 6.06667L9.93335 4.13333C10.2445 3.82222 10.6667 3.53889 11.2 3.28333C11.7333 3.02778 12.2222 2.86667 12.6667 2.8V1.33333C12.6667 0.955556 12.7945 0.638889 13.05 0.383333C13.3056 0.127778 13.6222 0 14 0C14.3778 0 14.6945 0.127778 14.95 0.383333C15.2056 0.638889 15.3334 0.955556 15.3334 1.33333V2.73333C16.1111 2.88889 16.8222 3.17778 17.4667 3.6C18.1111 4.02222 18.6556 4.55556 19.1 5.2C19.3 5.51111 19.3222 5.82778 19.1667 6.15C19.0111 6.47222 18.7556 6.71111 18.4 6.86667C18.0667 7 17.7278 7.02222 17.3834 6.93333C17.0389 6.84444 16.7445 6.65556 16.5 6.36667C16.1889 6.01111 15.8334 5.73889 15.4333 5.55C15.0333 5.36111 14.5778 5.26667 14.0667 5.26667ZM23.4667 25.2L18.2667 20C17.9333 20.3333 17.4778 20.6056 16.9 20.8167C16.3222 21.0278 15.8 21.1556 15.3334 21.2V22.6667C15.3334 23.0444 15.2056 23.3611 14.95 23.6167C14.6945 23.8722 14.3778 24 14 24C13.6222 24 13.3056 23.8722 13.05 23.6167C12.7945 23.3611 12.6667 23.0444 12.6667 22.6667V21.1333C11.6667 20.8889 10.7945 20.4722 10.05 19.8833C9.30557 19.2944 8.71113 18.5556 8.26668 17.6667C8.08891 17.3111 8.08335 16.95 8.25002 16.5833C8.41668 16.2167 8.68891 15.9556 9.06668 15.8C9.42224 15.6667 9.77224 15.6722 10.1167 15.8167C10.4611 15.9611 10.7222 16.2 10.9 16.5333C11.2333 17.1556 11.6834 17.6667 12.25 18.0667C12.8167 18.4667 13.4889 18.6667 14.2667 18.6667C14.6667 18.6667 15.0333 18.6167 15.3667 18.5167C15.7 18.4167 16.0222 18.2667 16.3334 18.0667L0.800016 2.53333C0.555572 2.28889 0.43335 1.97778 0.43335 1.6C0.43335 1.22222 0.555572 0.911111 0.800016 0.666667C1.04446 0.422222 1.35557 0.3 1.73335 0.3C2.11113 0.3 2.42224 0.422222 2.66668 0.666667L25.3334 23.3333C25.5778 23.5778 25.7 23.8889 25.7 24.2667C25.7 24.6444 25.5778 24.9556 25.3334 25.2C25.0889 25.4444 24.7778 25.5667 24.4 25.5667C24.0222 25.5667 23.7111 25.4444 23.4667 25.2Z" fill="#003049"/>
</svg>
