<svg width="17" height="28" viewBox="0 0 17 28" fill="none" xmlns="http://www.w3.org/2000/svg">
<path d="M8.5 27.3356C6.14444 27.3356 4.22222 26.9634 2.73333 26.2189C1.24444 25.4745 0.5 24.5134 0.5 23.3356C0.5 22.5578 0.822222 21.8801 1.46667 21.3023C2.11111 20.7245 3 20.2689 4.13333 19.9356L4.9 22.4689C4.52222 22.5801 4.17778 22.7189 3.86667 22.8856C3.55556 23.0523 3.34444 23.2023 3.23333 23.3356C3.52222 23.6912 4.18889 24.0023 5.23333 24.2689C6.27778 24.5356 7.36667 24.6689 8.5 24.6689C9.63333 24.6689 10.7278 24.5356 11.7833 24.2689C12.8389 24.0023 13.5111 23.6912 13.8 23.3356C13.6889 23.2023 13.4778 23.0523 13.1667 22.8856C12.8556 22.7189 12.5111 22.5801 12.1333 22.4689L12.9 19.9356C14.0333 20.2689 14.9167 20.7245 15.55 21.3023C16.1833 21.8801 16.5 22.5578 16.5 23.3356C16.5 24.5134 15.7556 25.4745 14.2667 26.2189C12.7778 26.9634 10.8556 27.3356 8.5 27.3356ZM8.5 18.4356C8.9 17.7023 9.32222 17.0301 9.76667 16.4189C10.2111 15.8078 10.6444 15.2245 11.0667 14.6689C11.8889 13.6023 12.5444 12.6412 13.0333 11.7856C13.5222 10.9301 13.7667 9.86894 13.7667 8.60228C13.7667 7.13561 13.2556 5.89117 12.2333 4.86894C11.2111 3.84672 9.96667 3.33561 8.5 3.33561C7.03333 3.33561 5.78889 3.84672 4.76667 4.86894C3.74444 5.89117 3.23333 7.13561 3.23333 8.60228C3.23333 9.86894 3.47778 10.9301 3.96667 11.7856C4.45556 12.6412 5.11111 13.6023 5.93333 14.6689C6.35556 15.2245 6.78889 15.8078 7.23333 16.4189C7.67778 17.0301 8.1 17.7023 8.5 18.4356ZM8.5 23.3356C8.25556 23.3356 8.03333 23.2634 7.83333 23.1189C7.63333 22.9745 7.48889 22.7801 7.4 22.5356C6.88889 20.9578 6.24444 19.6356 5.46667 18.5689C4.68889 17.5023 3.93333 16.4801 3.2 15.5023C2.48889 14.5245 1.87222 13.5134 1.35 12.4689C0.827778 11.4245 0.566667 10.1356 0.566667 8.60228C0.566667 6.38006 1.33333 4.50228 2.86667 2.96895C4.4 1.43561 6.27778 0.668945 8.5 0.668945C10.7222 0.668945 12.6 1.43561 14.1333 2.96895C15.6667 4.50228 16.4333 6.38006 16.4333 8.60228C16.4333 10.1356 16.1778 11.4245 15.6667 12.4689C15.1556 13.5134 14.5333 14.5245 13.8 15.5023C13.0889 16.4801 12.3389 17.5023 11.55 18.5689C10.7611 19.6356 10.1111 20.9578 9.6 22.5356C9.51111 22.7801 9.36667 22.9745 9.16667 23.1189C8.96667 23.2634 8.74444 23.3356 8.5 23.3356ZM8.5 11.4356C9.27778 11.4356 9.94444 11.1578 10.5 10.6023C11.0556 10.0467 11.3333 9.38006 11.3333 8.60228C11.3333 7.8245 11.0556 7.15783 10.5 6.60228C9.94444 6.04672 9.27778 5.76894 8.5 5.76894C7.72222 5.76894 7.05556 6.04672 6.5 6.60228C5.94444 7.15783 5.66667 7.8245 5.66667 8.60228C5.66667 9.38006 5.94444 10.0467 6.5 10.6023C7.05556 11.1578 7.72222 11.4356 8.5 11.4356Z" fill="#003049"/>
</svg>
