<svg width="32" height="32" viewBox="0 0 32 32" fill="none" xmlns="http://www.w3.org/2000/svg">
<mask id="mask0_420_1363" style="mask-type:alpha" maskUnits="userSpaceOnUse" x="0" y="0" width="32" height="32">
<rect width="32" height="32" fill="#D9D9D9"/>
</mask>
<g mask="url(#mask0_420_1363)">
<path d="M19.3 15.9997L9.49998 6.19967C9.16665 5.86634 9.00554 5.4719 9.01665 5.01634C9.02776 4.56079 9.19998 4.16634 9.53332 3.83301C9.86665 3.49967 10.2611 3.33301 10.7167 3.33301C11.1722 3.33301 11.5667 3.49967 11.9 3.83301L22.1333 14.0997C22.4 14.3663 22.6 14.6663 22.7333 14.9997C22.8667 15.333 22.9333 15.6663 22.9333 15.9997C22.9333 16.333 22.8667 16.6663 22.7333 16.9997C22.6 17.333 22.4 17.633 22.1333 17.8997L11.8667 28.1663C11.5333 28.4997 11.1444 28.6608 10.7 28.6497C10.2555 28.6386 9.86665 28.4663 9.53332 28.133C9.19998 27.7997 9.03332 27.4052 9.03332 26.9497C9.03332 26.4941 9.19998 26.0997 9.53332 25.7663L19.3 15.9997Z" fill="#003049"/>
</g>
</svg>
