<svg width="33" height="32" viewBox="0 0 33 32" fill="none" xmlns="http://www.w3.org/2000/svg">
<mask id="mask0_723_10990" style="mask-type:alpha" maskUnits="userSpaceOnUse" x="0" y="0" width="33" height="32">
<rect x="32.5" width="32" height="32" transform="rotate(90 32.5 0)" fill="#D9D9D9"/>
</mask>
<g mask="url(#mask0_723_10990)">
<path d="M5.83366 5.33366C5.83366 4.60032 6.09477 3.97255 6.61699 3.45032C7.13922 2.9281 7.76699 2.66699 8.50033 2.66699L13.0003 2.66699C13.2448 2.66699 13.4559 2.74477 13.6337 2.90032C13.8114 3.05588 13.9225 3.25588 13.967 3.50032C14.1448 4.03366 14.467 4.47255 14.9337 4.81699C15.4003 5.16144 15.9225 5.33366 16.5003 5.33366C17.0781 5.33366 17.6003 5.16144 18.067 4.81699C18.5337 4.47255 18.8559 4.03366 19.0337 3.50033C19.0781 3.25588 19.1892 3.05588 19.367 2.90033C19.5448 2.74477 19.7559 2.66699 20.0003 2.66699L24.5003 2.66699C25.2337 2.66699 25.8614 2.9281 26.3837 3.45033C26.9059 3.97255 27.167 4.60033 27.167 5.33366L27.167 26.667C27.167 27.4003 26.9059 28.0281 26.3837 28.5503C25.8614 29.0725 25.2337 29.3337 24.5003 29.3337L20.0003 29.3337C19.7559 29.3337 19.5448 29.2559 19.367 29.1003C19.1892 28.9448 19.0781 28.7448 19.0337 28.5003C18.8559 27.967 18.5337 27.5281 18.067 27.1837C17.6003 26.8392 17.0781 26.667 16.5003 26.667C15.9225 26.667 15.4003 26.8392 14.9337 27.1837C14.467 27.5281 14.1448 27.967 13.967 28.5003C13.9225 28.7448 13.8114 28.9448 13.6337 29.1003C13.4559 29.2559 13.2448 29.3337 13.0003 29.3337L8.50032 29.3337C7.76699 29.3337 7.13921 29.0725 6.61699 28.5503C6.09477 28.0281 5.83366 27.4003 5.83366 26.667L5.83366 5.33366ZM8.50033 5.33366L8.50033 26.667L11.9003 26.667C12.3892 25.8448 13.0392 25.1948 13.8503 24.717C14.6614 24.2392 15.5448 24.0003 16.5003 24.0003C17.4559 24.0003 18.3392 24.2392 19.1503 24.717C19.9614 25.1948 20.6114 25.8448 21.1003 26.667L24.5003 26.667L24.5003 5.33366L21.1003 5.33366C20.6114 6.15588 19.9614 6.80588 19.1503 7.28366C18.3392 7.76144 17.4559 8.00032 16.5003 8.00032C15.5448 8.00032 14.6614 7.76144 13.8503 7.28366C13.0392 6.80588 12.3892 6.15588 11.9003 5.33366L8.50033 5.33366ZM9.83366 16.0003C9.83366 16.3781 9.96144 16.6948 10.217 16.9503C10.4725 17.2059 10.7892 17.3337 11.167 17.3337C11.5448 17.3337 11.8614 17.2059 12.117 16.9503C12.3725 16.6948 12.5003 16.3781 12.5003 16.0003C12.5003 15.6225 12.3725 15.3059 12.117 15.0503C11.8614 14.7948 11.5448 14.667 11.167 14.667C10.7892 14.667 10.4725 14.7948 10.217 15.0503C9.96144 15.3059 9.83366 15.6225 9.83366 16.0003ZM15.167 16.0003C15.167 16.3781 15.2948 16.6948 15.5503 16.9503C15.8059 17.2059 16.1225 17.3337 16.5003 17.3337C16.8781 17.3337 17.1948 17.2059 17.4503 16.9503C17.7059 16.6948 17.8337 16.3781 17.8337 16.0003C17.8337 15.6225 17.7059 15.3059 17.4503 15.0503C17.1948 14.7948 16.8781 14.667 16.5003 14.667C16.1225 14.667 15.8059 14.7948 15.5503 15.0503C15.2948 15.3059 15.167 15.6225 15.167 16.0003ZM20.5003 16.0003C20.5003 16.3781 20.6281 16.6948 20.8837 16.9503C21.1392 17.2059 21.4559 17.3337 21.8337 17.3337C22.2114 17.3337 22.5281 17.2059 22.7837 16.9503C23.0392 16.6948 23.167 16.3781 23.167 16.0003C23.167 15.6225 23.0392 15.3059 22.7837 15.0503C22.5281 14.7948 22.2114 14.667 21.8337 14.667C21.4559 14.667 21.1392 14.7948 20.8837 15.0503C20.6281 15.3059 20.5003 15.6225 20.5003 16.0003Z" fill="#003049"/>
</g>
</svg>
