<svg width="156" height="31" viewBox="0 0 156 31" fill="none" xmlns="http://www.w3.org/2000/svg">
<path d="M14.8697 18C15.0964 18.4267 15.303 18.8733 15.4897 19.34C15.6897 19.7933 15.883 20.2533 16.0697 20.72C16.2564 20.24 16.4497 19.7667 16.6497 19.3C16.8497 18.8333 17.063 18.3867 17.2897 17.96L25.8497 1.94C25.9564 1.74 26.063 1.58 26.1697 1.46C26.2897 1.34 26.4164 1.25333 26.5497 1.2C26.6964 1.14666 26.8564 1.11333 27.0297 1.1C27.203 1.08666 27.4097 1.08 27.6497 1.08H31.7097V30H26.9697V11.32C26.9697 10.9733 26.9764 10.5933 26.9897 10.18C27.0164 9.76667 27.0497 9.34667 27.0897 8.92L18.3497 25.32C18.1497 25.6933 17.8897 25.9867 17.5697 26.2C17.2497 26.4 16.8764 26.5 16.4497 26.5H15.7097C15.283 26.5 14.9097 26.4 14.5897 26.2C14.2697 25.9867 14.0097 25.6933 13.8097 25.32L4.94969 8.86C5.00302 9.3 5.03635 9.73333 5.04969 10.16C5.07635 10.5733 5.08969 10.96 5.08969 11.32V30H0.349688V1.08H4.40969C4.64969 1.08 4.85635 1.08666 5.02969 1.1C5.20302 1.11333 5.35635 1.14666 5.48969 1.2C5.63635 1.25333 5.76969 1.34 5.88969 1.46C6.00969 1.58 6.12302 1.74 6.22969 1.94L14.8697 18ZM45.7372 9.16C47.0305 9.16 48.2172 9.36667 49.2972 9.78C50.3905 10.1933 51.3305 10.8 52.1172 11.6C52.9039 12.3867 53.5172 13.36 53.9572 14.52C54.3972 15.6667 54.6172 16.98 54.6172 18.46C54.6172 18.8333 54.5972 19.1467 54.5572 19.4C54.5305 19.64 54.4705 19.8333 54.3772 19.98C54.2972 20.1133 54.1839 20.2133 54.0372 20.28C53.8905 20.3333 53.7039 20.36 53.4772 20.36H40.7972C40.9439 22.4667 41.5105 24.0133 42.4972 25C43.4839 25.9867 44.7905 26.48 46.4172 26.48C47.2172 26.48 47.9039 26.3867 48.4772 26.2C49.0639 26.0133 49.5705 25.8067 49.9972 25.58C50.4372 25.3533 50.8172 25.1467 51.1372 24.96C51.4705 24.7733 51.7905 24.68 52.0972 24.68C52.2972 24.68 52.4705 24.72 52.6172 24.8C52.7639 24.88 52.8905 24.9933 52.9972 25.14L54.4372 26.94C53.8905 27.58 53.2772 28.12 52.5972 28.56C51.9172 28.9867 51.2039 29.3333 50.4572 29.6C49.7239 29.8533 48.9705 30.0333 48.1972 30.14C47.4372 30.2467 46.6972 30.3 45.9772 30.3C44.5505 30.3 43.2239 30.0667 41.9972 29.6C40.7705 29.12 39.7039 28.42 38.7972 27.5C37.8905 26.5667 37.1772 25.42 36.6572 24.06C36.1372 22.6867 35.8772 21.1 35.8772 19.3C35.8772 17.9 36.1039 16.5867 36.5572 15.36C37.0105 14.12 37.6572 13.0467 38.4972 12.14C39.3505 11.22 40.3839 10.4933 41.5972 9.96C42.8239 9.42667 44.2039 9.16 45.7372 9.16ZM45.8372 12.7C44.3972 12.7 43.2705 13.1067 42.4572 13.92C41.6439 14.7333 41.1239 15.8867 40.8972 17.38H50.1772C50.1772 16.74 50.0905 16.14 49.9172 15.58C49.7439 15.0067 49.4772 14.5067 49.1172 14.08C48.7572 13.6533 48.3039 13.32 47.7572 13.08C47.2105 12.8267 46.5705 12.7 45.8372 12.7Z" fill="#003049"/>
<path d="M74.4044 6.34C74.2577 6.63333 74.0844 6.84 73.8844 6.96C73.6977 7.08 73.471 7.14 73.2044 7.14C72.9377 7.14 72.6377 7.04 72.3044 6.84C71.971 6.62667 71.5777 6.39333 71.1244 6.14C70.671 5.88667 70.1377 5.66 69.5244 5.46C68.9244 5.24667 68.211 5.14 67.3844 5.14C66.6377 5.14 65.9844 5.23333 65.4244 5.42C64.8777 5.59333 64.411 5.84 64.0244 6.16C63.651 6.48 63.371 6.86666 63.1844 7.32C62.9977 7.76 62.9044 8.24667 62.9044 8.78C62.9044 9.46 63.091 10.0267 63.4644 10.48C63.851 10.9333 64.3577 11.32 64.9844 11.64C65.611 11.96 66.3244 12.2467 67.1244 12.5C67.9244 12.7533 68.7377 13.0267 69.5644 13.32C70.4044 13.6 71.2244 13.9333 72.0244 14.32C72.8244 14.6933 73.5377 15.1733 74.1644 15.76C74.791 16.3333 75.291 17.04 75.6644 17.88C76.051 18.72 76.2444 19.74 76.2444 20.94C76.2444 22.2467 76.0177 23.4733 75.5644 24.62C75.1244 25.7533 74.471 26.7467 73.6044 27.6C72.751 28.44 71.7044 29.1067 70.4644 29.6C69.2244 30.08 67.8044 30.32 66.2044 30.32C65.2844 30.32 64.3777 30.2267 63.4844 30.04C62.591 29.8667 61.731 29.6133 60.9044 29.28C60.091 28.9467 59.3244 28.5467 58.6044 28.08C57.8977 27.6133 57.2644 27.0933 56.7044 26.52L58.2644 23.94C58.411 23.7533 58.5844 23.6 58.7844 23.48C58.9977 23.3467 59.231 23.28 59.4844 23.28C59.8177 23.28 60.1777 23.42 60.5644 23.7C60.951 23.9667 61.4044 24.2667 61.9244 24.6C62.4577 24.9333 63.0777 25.24 63.7844 25.52C64.5044 25.7867 65.3644 25.92 66.3644 25.92C67.8977 25.92 69.0844 25.56 69.9244 24.84C70.7644 24.1067 71.1844 23.06 71.1844 21.7C71.1844 20.94 70.991 20.32 70.6044 19.84C70.231 19.36 69.731 18.96 69.1044 18.64C68.4777 18.3067 67.7644 18.0267 66.9644 17.8C66.1644 17.5733 65.351 17.3267 64.5244 17.06C63.6977 16.7933 62.8844 16.4733 62.0844 16.1C61.2844 15.7267 60.571 15.24 59.9444 14.64C59.3177 14.04 58.811 13.2933 58.4244 12.4C58.051 11.4933 57.8644 10.38 57.8644 9.06C57.8644 8.00667 58.071 6.98 58.4844 5.98C58.911 4.98 59.5244 4.09333 60.3244 3.32C61.1377 2.54666 62.131 1.92667 63.3044 1.46C64.4777 0.993333 65.8177 0.76 67.3244 0.76C69.031 0.76 70.6044 1.02667 72.0444 1.56C73.4844 2.09333 74.711 2.84 75.7244 3.8L74.4044 6.34ZM84.5897 9.48V22.52C84.5897 23.7733 84.8764 24.7467 85.4497 25.44C86.0364 26.12 86.9097 26.46 88.0697 26.46C88.923 26.46 89.723 26.2733 90.4697 25.9C91.2164 25.5133 91.923 24.9867 92.5897 24.32V9.48H97.5297V30H94.5097C93.8697 30 93.4497 29.7 93.2497 29.1L92.9097 27.46C92.483 27.8867 92.043 28.28 91.5897 28.64C91.1364 28.9867 90.6497 29.2867 90.1297 29.54C89.623 29.78 89.0697 29.9667 88.4697 30.1C87.883 30.2467 87.2497 30.32 86.5697 30.32C85.4497 30.32 84.4564 30.1333 83.5897 29.76C82.7364 29.3733 82.0164 28.8333 81.4297 28.14C80.843 27.4467 80.3964 26.6267 80.0897 25.68C79.7964 24.72 79.6497 23.6667 79.6497 22.52V9.48H84.5897ZM102.804 30V9.48H105.824C106.464 9.48 106.884 9.78 107.084 10.38L107.404 11.9C107.764 11.5 108.137 11.1333 108.524 10.8C108.924 10.4667 109.344 10.18 109.784 9.94C110.237 9.7 110.717 9.51333 111.224 9.38C111.744 9.23333 112.311 9.16 112.924 9.16C114.217 9.16 115.277 9.51333 116.104 10.22C116.944 10.9133 117.571 11.84 117.984 13C118.304 12.32 118.704 11.74 119.184 11.26C119.664 10.7667 120.191 10.3667 120.764 10.06C121.337 9.75333 121.944 9.52667 122.584 9.38C123.237 9.23333 123.891 9.16 124.544 9.16C125.677 9.16 126.684 9.33333 127.564 9.68C128.444 10.0267 129.184 10.5333 129.784 11.2C130.384 11.8667 130.837 12.68 131.144 13.64C131.464 14.6 131.624 15.7 131.624 16.94V30H126.684V16.94C126.684 15.6333 126.397 14.6533 125.824 14C125.251 13.3333 124.411 13 123.304 13C122.797 13 122.324 13.0867 121.884 13.26C121.457 13.4333 121.077 13.6867 120.744 14.02C120.424 14.34 120.171 14.7467 119.984 15.24C119.797 15.7333 119.704 16.3 119.704 16.94V30H114.744V16.94C114.744 15.5667 114.464 14.5667 113.904 13.94C113.357 13.3133 112.544 13 111.464 13C110.757 13 110.091 13.18 109.464 13.54C108.851 13.8867 108.277 14.3667 107.744 14.98V30H102.804ZM145.236 9.16C146.769 9.16 148.156 9.40667 149.396 9.9C150.649 10.3933 151.716 11.0933 152.596 12C153.476 12.9067 154.156 14.0133 154.636 15.32C155.116 16.6267 155.356 18.0867 155.356 19.7C155.356 21.3267 155.116 22.7933 154.636 24.1C154.156 25.4067 153.476 26.52 152.596 27.44C151.716 28.36 150.649 29.0667 149.396 29.56C148.156 30.0533 146.769 30.3 145.236 30.3C143.703 30.3 142.309 30.0533 141.056 29.56C139.803 29.0667 138.729 28.36 137.836 27.44C136.956 26.52 136.269 25.4067 135.776 24.1C135.296 22.7933 135.056 21.3267 135.056 19.7C135.056 18.0867 135.296 16.6267 135.776 15.32C136.269 14.0133 136.956 12.9067 137.836 12C138.729 11.0933 139.803 10.3933 141.056 9.9C142.309 9.40667 143.703 9.16 145.236 9.16ZM145.236 26.5C146.943 26.5 148.203 25.9267 149.016 24.78C149.843 23.6333 150.256 21.9533 150.256 19.74C150.256 17.5267 149.843 15.84 149.016 14.68C148.203 13.52 146.943 12.94 145.236 12.94C143.503 12.94 142.223 13.5267 141.396 14.7C140.569 15.86 140.156 17.54 140.156 19.74C140.156 21.94 140.569 23.62 141.396 24.78C142.223 25.9267 143.503 26.5 145.236 26.5Z" fill="#F77F00"/>
</svg>
